<?xml version="1.0" encoding="UTF-8" standalone="no"?><svg xmlns:svg="http://www.w3.org/2000/svg" xmlns="http://www.w3.org/2000/svg" xmlns:xlink="http://www.w3.org/1999/xlink" version="1.0" width="64px" height="64px" viewBox="0 0 128 128" xml:space="preserve"><rect x="0" y="0" width="100%" height="100%" fill="#FFFFFF" /><g><path d="M75.44 9.02C74.04 12.28 64.17 19.3 64 19.42c-.17-.12-10.05-7.14-11.44-10.4A6.45 6.45 0 0 1 64 3.12 6.45 6.45 0 0 1 75.44 9z" fill="#ff0000"/><path d="M75.44 9.02C74.04 12.28 64.17 19.3 64 19.42c-.17-.12-10.05-7.14-11.44-10.4A6.45 6.45 0 0 1 64 3.12 6.45 6.45 0 0 1 75.44 9z" fill="#fff8f8" transform="rotate(30 64 64)"/><path d="M75.44 9.02C74.04 12.28 64.17 19.3 64 19.42c-.17-.12-10.05-7.14-11.44-10.4A6.45 6.45 0 0 1 64 3.12 6.45 6.45 0 0 1 75.44 9z" fill="#ffe8e8" transform="rotate(60 64 64)"/><path d="M75.44 9.02C74.04 12.28 64.17 19.3 64 19.42c-.17-.12-10.05-7.14-11.44-10.4A6.45 6.45 0 0 1 64 3.12 6.45 6.45 0 0 1 75.44 9z" fill="#ffd4d4" transform="rotate(90 64 64)"/><path d="M75.44 9.02C74.04 12.28 64.17 19.3 64 19.42c-.17-.12-10.05-7.14-11.44-10.4A6.45 6.45 0 0 1 64 3.12 6.45 6.45 0 0 1 75.44 9z" fill="#ffbebe" transform="rotate(120 64 64)"/><path d="M75.44 9.02C74.04 12.28 64.17 19.3 64 19.42c-.17-.12-10.05-7.14-11.44-10.4A6.45 6.45 0 0 1 64 3.12 6.45 6.45 0 0 1 75.44 9z" fill="#ffa6a6" transform="rotate(150 64 64)"/><path d="M75.44 9.02C74.04 12.28 64.17 19.3 64 19.42c-.17-.12-10.05-7.14-11.44-10.4A6.45 6.45 0 0 1 64 3.12 6.45 6.45 0 0 1 75.44 9z" fill="#ff8e8e" transform="rotate(180 64 64)"/><path d="M75.44 9.02C74.04 12.28 64.17 19.3 64 19.42c-.17-.12-10.05-7.14-11.44-10.4A6.45 6.45 0 0 1 64 3.12 6.45 6.45 0 0 1 75.44 9z" fill="#ff7373" transform="rotate(210 64 64)"/><path d="M75.44 9.02C74.04 12.28 64.17 19.3 64 19.42c-.17-.12-10.05-7.14-11.44-10.4A6.45 6.45 0 0 1 64 3.12 6.45 6.45 0 0 1 75.44 9z" fill="#ff5a5a" transform="rotate(240 64 64)"/><path d="M75.44 9.02C74.04 12.28 64.17 19.3 64 19.42c-.17-.12-10.05-7.14-11.44-10.4A6.45 6.45 0 0 1 64 3.12 6.45 6.45 0 0 1 75.44 9z" fill="#ff4141" transform="rotate(270 64 64)"/><path d="M75.44 9.02C74.04 12.28 64.17 19.3 64 19.42c-.17-.12-10.05-7.14-11.44-10.4A6.45 6.45 0 0 1 64 3.12 6.45 6.45 0 0 1 75.44 9z" fill="#ff2a2a" transform="rotate(300 64 64)"/><path d="M75.44 9.02C74.04 12.28 64.17 19.3 64 19.42c-.17-.12-10.05-7.14-11.44-10.4A6.45 6.45 0 0 1 64 3.12 6.45 6.45 0 0 1 75.44 9z" fill="#ff1515" transform="rotate(330 64 64)"/><animateTransform attributeName="transform" type="rotate" values="0 64 64;30 64 64;60 64 64;90 64 64;120 64 64;150 64 64;180 64 64;210 64 64;240 64 64;270 64 64;300 64 64;330 64 64" calcMode="discrete" dur="1680ms" repeatCount="indefinite"></animateTransform></g></svg>